<svg enable-background="new 0 0 612 792" height="792" viewBox="0 0 612 792" width="612" xmlns="http://www.w3.org/2000/svg"><path d="m602.735 411.511c-21.122 403.345-581.303 383.973-593.492 0 21.121-403.343 581.301-383.971 593.492 0" fill="#fcb2a8"/><path d="m602.735 411.511c-21.122 403.345-581.303 383.973-593.492 0 21.121-403.343 581.301-383.971 593.492 0z" fill="none" stroke="#fff" stroke-miterlimit="10"/><path d="m413.855 397.063c-12.19 209.646-299.388 193.168-304.275 0 12.181-209.644 299.38-193.172 304.275 0" fill="#fff"/><path d="m413.855 397.063c-12.19 209.646-299.388 193.168-304.275 0 12.181-209.644 299.38-193.172 304.275 0z" fill="none" stroke="#fff" stroke-miterlimit="10" stroke-width=".5"/><path d="m148.291 376.002c10.529 17.833 33.768 23.577 51.959 12.834" fill="none" stroke="#fcb2a8" stroke-miterlimit="10" stroke-width="9"/><path d="m254.033 398.678c10.528 17.827 33.765 23.571 51.957 12.833" fill="none" stroke="#fcb2a8" stroke-miterlimit="10" stroke-width="9"/><g fill="#fcb2a8"><path d="m227.923 263.493c-8.483 6.025-18.614 14.243-21.127 24.951-1.595 6.787.942 13.277 6.419 17.513 13.508 10.444 35.763 7.595 48.69-2.289 9.23-7.06 13.03-17.763 13.205-29.097.024-1.64-4.152-1.167-4.847-1.088-7.782.833-17.712 3.311-22.379 10.252-3.131 4.662-2.37 10.269.535 14.821 8.695 13.646 27.614 13.781 40.777 7.251 12.04-5.976 19.782-17.565 25.225-29.457 1.007-2.201-3.92-1.884-4.802-1.763-2.191.312-5.654 1.272-6.68 3.525-4.01 8.753-9.294 17.829-17.415 23.394-.984.675-2.363 1.477-3.146 1.832-.463.211-1.742.689-1.685.671.397-.132-2.347.535-1.298.333-1.803.35-3.924.359-6.414-.192-7.604-1.703-17.609-9.674-15.312-18.558.571-2.223 1.849-3.895 3.485-4.972.004 0 2.124-.983 1.677-.833 1.905-.622 3.289-.79 5.553-1.031-1.614-.363-3.226-.723-4.843-1.091-.128 8.424-2.514 17.18-8.692 23.204-1.121 1.093-2.38 2.079-3.701 2.926-.922.591-2.538 1.333-3.551 1.74-.313.132-.64.242-.965.351 1.23-.421.141-.043-.177.043-.397.105-2.5.605-1.156.33-2.525.512-2.407.478-4.547.538-5.034.149-11.507-1.192-16.377-4.801-4.438-3.302-7.192-8.335-6.363-13.965 1.508-10.226 11.125-17.899 18.967-23.463 1.962-1.398 1.229-2.885-.88-3.27-2.623-.488-6.046.678-8.176 2.195"/><path d="m215.506 483.408c.948-.537 1.903-1.051 2.885-1.506.22-.104.436-.203.653-.289l-2.108.89c.516-.213 1.042-.42 1.589-.544.112-.02.22-.048.334-.057-.784.098-1.565.206-2.352.31.177-.021.35-.035.52-.01-.782-.102-1.565-.208-2.345-.319.074.02.148.034.225.066l-2.111-.895c.05.02.09.046.129.078-.595-.462-1.192-.922-1.784-1.384.028.026.055.055.083.089-.459-.601-.918-1.2-1.385-1.789.028.031.053.072.066.108-.295-.703-.593-1.406-.89-2.109.018.051.034.102.041.16-.106-.782-.208-1.573-.313-2.351.009.089.004.178-.005.261.104-.782.207-1.563.316-2.346-.028.204-.097.396-.173.581.297-.698.593-1.406.89-2.104-.215.501-.52.971-.836 1.417-.108.145-.214.295-.327.439l1.381-1.795c-.419.544-.87 1.066-1.34 1.557-.471.502-.962.982-1.48 1.438-.269.234-.539.467-.822.689l1.789-1.383c-.372.286-.76.555-1.174.782-.092.045-.188.094-.287.129.705-.296 1.407-.594 2.109-.895-.141.072-.288.118-.441.139.781-.106 1.563-.212 2.346-.309-.073.005-.142.005-.207 0 .781.102 1.563.206 2.347.314-.044-.01-.088-.021-.126-.034.704.298 1.411.593 2.111.882-.034-.004-.062-.024-.085-.041l1.784 1.378c-.022-.018-.046-.043-.065-.064l1.379 1.785c-.023-.031-.04-.066-.056-.104.296.704.594 1.408.889 2.116-.023-.063-.036-.123-.044-.182.104.782.207 1.563.313 2.344-.018-.139-.007-.284.011-.424-.103.779-.212 1.565-.315 2.348.051-.403.183-.792.324-1.169.062-.149.119-.294.18-.439-.296.698-.596 1.407-.889 2.111.274-.642.583-1.268.902-1.884.458-.849.939-1.692 1.438-2.519.344-.58.702-1.159 1.061-1.733.638-1.008.994-2.106 1.044-3.275.265-1.174.212-2.353-.154-3.521-.274-1.153-.804-2.152-1.583-3.006-.623-.968-1.446-1.722-2.477-2.276-.707-.298-1.404-.593-2.112-.888-1.561-.426-3.126-.426-4.694 0-.7.295-1.404.59-2.109.888-1.324.787-2.385 1.844-3.17 3.167-.606.979-1.208 1.964-1.78 2.969-.421.745-.834 1.5-1.209 2.271-.144.29-.272.585-.398.884-.4.926-.842 1.873-1.176 2.835-.063.203-.125.398-.173.601-.018.084-.036.164-.048.247-.122.776-.227 1.604-.322 2.392-.002.02-.002.035-.007.057-.006.036-.006.072-.011.103 0 .063-.001.126 0 .192 0 .014.005.02.005.036v.021c.034.347.257 2.013.315 2.363.005.025.009.052.015.079l.022.061c0 .012.007.02.012.031.073.223.789 1.929.898 2.136.01.015.023.032.028.058.006.006.013.006.018.014.067.11 1.312 1.725 1.395 1.812.015.016.028.032.042.042 0 0 .005 0 .009.005l.005.006c.297.237.592.465.895.697.297.228.598.456.895.689h.005l.002.003c.005.005.005.005.01.011l.051.026c.138.077 1.968.85 2.132.9.007.006.018.012.025.012.016.004.034.01.06.016h.026c.033.008 2.316.319 2.355.319h.018c.042.01.088.01.133 0 .837-.046 1.807-.107 2.65-.378.062-.02.119-.047.173-.067.743-.289 1.48-.604 2.202-.926.033-.02.06-.025.096-.037.3-.155.581-.33.854-.526.772-.542 1.51-1.144 2.248-1.722.175-.124.341-.266.499-.402.35-.29.688-.603 1.018-.923.341-.335.679-.673 1.003-1.028.309-.342.617-.698.909-1.056.603-.755 1.2-1.521 1.775-2.297.122-.172.24-.337.354-.507.196-.295.385-.61.536-.931.018-.025.033-.067.049-.099.319-.729.634-1.476.93-2.203.027-.073.053-.135.076-.202.015-.062.034-.123.05-.182.007-.025.012-.067.023-.092l.005-.037c0-.011.002-.014.002-.02.046-.301.29-2.07.317-2.364.003-.054.009-.11.009-.161 0-.021 0-.046-.006-.066-.023-.394-.216-1.64-.157-1.207.09.688-.083-.838-.163-1.203-.007-.049-.022-.089-.039-.129-.022-.063-.857-2.061-.895-2.122 0-.005-.001-.005-.001-.005-.005-.014-.011-.025-.02-.036-.006-.011-.02-.032-.028-.048-.097-.147-1.277-1.68-1.398-1.809-.005-.011-.016-.017-.027-.017-.012-.021-.024-.036-.041-.047-.167-.148-1.625-1.277-1.807-1.401-.011 0-.02-.01-.03-.016l-.059-.031-.016-.006c-.113-.057-1.996-.856-2.119-.899-.013-.005-.023-.005-.039-.01-.023-.01-.046-.021-.069-.026-.032-.01-.059-.01-.087-.016-.385-.077-1.257-.17-1.209-.16-.15-.024-.815-.13-1.217-.165-.14-.01-.287-.005-.426.017-.822.086-1.655.201-2.468.324-.042.006-.085.017-.134.026-.098.016-.197.047-.297.063-.231.068-.458.141-.689.222-.994.356-1.968.802-2.935 1.216-.73.311-1.445.667-2.146 1.039-.434.234-.865.466-1.296.715-1.025.554-1.854 1.314-2.475 2.271-.778.859-1.303 1.861-1.578 3.009-.373 1.172-.424 2.345-.161 3.514.051 1.18.398 2.271 1.05 3.289l1.377 1.791c1.104 1.087 2.397 1.846 3.898 2.265.78.108 1.562.212 2.348.314 1.589-.007 3.08-.405 4.454-1.206"/><path d="m264.491 413.791c-.489 1.231-1.198 2.328-2.123 3.239-.227.233-.46.444-.707.65-.069.052-.14.104-.207.158-.226.176.156-.111-.08.06-.138.102-.282.198-.432.294-.129.089-.27.168-.405.246-.064.036-.126.075-.193.105.28-.127.033-.013-.031.018-.155.079-.315.15-.475.219-.248.111.288-.101.013 0-.085.026-.165.058-.246.084-.175.065-1.271.501-.863.82.177.136.537.104.739.088.376-.041.76-.123 1.12-.251 2.981-1.088 5.562-3.249 6.739-6.243.192-.483-.971-.313-1.154-.276-.376.07-.76.171-1.106.342-.191.1-.506.227-.589.447"/><path d="m273.78 415.545c-.967.504-1.95.996-2.713 1.793-.789.825-1.294 1.947-1.833 2.938-.607 1.123-1.222 2.24-1.853 3.354-.351.618.319 1.193.895 1.251.742.074 1.5-.229 1.876-.891.901-1.588 1.731-3.206 2.646-4.784.057-.101.117-.201.175-.298.028-.049.064-.097.088-.149.009-.009-.192.294-.094.153.015-.021.033-.048.053-.07.103-.158.209-.307.333-.451.052-.062.112-.118.169-.185.146-.166-.18.158-.137.123.039-.025.072-.057.108-.092.127-.114.271-.207.417-.307.054-.039.254-.158-.012 0-.262.161-.052.039.012 0 .106-.062.214-.128.324-.185.28-.153.562-.299.842-.446.521-.273 1.106-.923.673-1.521-.415-.576-1.41-.531-1.969-.233"/><path d="m281.886 417.697c-.475 3.727.9 7.539 3.703 10.063.457.417 1.396.167 1.896-.04.271-.114 1.263-.631.802-1.043-2.591-2.333-3.962-5.919-3.521-9.396.076-.597-.833-.565-1.217-.496-.421.066-1.584.335-1.663.912"/><path d="m158.911 392.472c-.745 1.123-1.637 2.123-2.665 2.995-.26.219-.531.435-.807.632-.245.188-.376.272-.687.469-.288.175-.583.351-.884.514-.091.048-.195.101-.042.021-.076.041-.153.08-.232.119-.168.079-.338.158-.51.231-.225.098-.997.559-.372.69.625.135 1.453-.137 2.016-.392 2.834-1.245 5.309-3.231 7.028-5.818.274-.403-1.039-.236-1.141-.219-.375.074-.758.175-1.106.347-.21.094-.459.209-.598.411"/><path d="m167.021 395.266c-.589.565-1.361 1.144-1.721 1.897-.455.961-.696 2.047-1.084 3.043-.532 1.396-1.188 2.864-1.85 4.302-.615 1.342 2.272 1.097 2.713.146.959-2.088 1.906-4.197 2.623-6.381.114-.351.252-.701.346-1.057-.015.057-.114.232-.01.045.028-.057.057-.102.083-.159.037-.047.076-.091.109-.148.071-.118-.247.271-.036.049.381-.399.784-.768 1.175-1.146.456-.429.291-.982-.303-1.139-.672-.176-1.546.07-2.045.548"/><path d="m173.075 396.19c.083.088.147.197.228.285.092.101-.069-.224-.033-.058.007.03.038.114.053.149.025.035.006.097.025.132.038.074.053-.237-.004-.08-.021.08-.02.185-.037.272-.027.105-.165.422-.013.062-.04.105-.079.206-.122.303-.118.294-.238.579-.338.882-.582 1.771.102 3.551.979 5.095 1.075 1.89 2.53 3.557 4.016 5.13.8.851 3.554-.263 2.664-1.201-1.361-1.455-2.691-2.977-3.741-4.678-.55-.891-1.021-1.873-1.182-2.924-.015-.099-.023-.194-.034-.291-.022-.18-.007-.065-.007-.062 0-.179.007-.352.028-.522.033-.289.112-.556.189-.832.067-.229-.057.136-.009.021.02-.048.041-.101.062-.145.046-.118.095-.229.138-.346.111-.255.22-.514.285-.781.135-.601-.064-1.175-.484-1.623-.799-.852-3.552.26-2.663 1.212"/></g><path d="m438.471 389.438c.245 21.709-37.459 30.396-41.515-.003-.245-21.702 37.454-30.393 41.515.003" fill="#fff"/><path d="m438.471 389.438c.245 21.709-37.459 30.396-41.515-.003-.245-21.702 37.454-30.393 41.515.003z" fill="none" stroke="#fff" stroke-miterlimit="10" stroke-width=".25"/><path d="m389.427 468.89c60.154-10.975 127.689 26.256 140.95 88.43 3.771 17.692 2.297 35.64-3.193 52.809 7.704-1.537 15.409-3.076 23.117-4.615-.048-2.07-.101-4.141-.149-6.213-.166-6.854-23.344-2.469-23.144 6.199.053 2.069.105 4.14.151 6.209.104 4.223 9.462 3.157 11.486 2.735 4.104-.838 10.2-2.862 11.633-7.357 10.327-32.254 5.372-66.363-13.457-94.453-18.814-28.067-49.363-46.913-81.942-54.642-20.275-4.816-41.683-5.136-62.154-1.405-4.048.742-12.29 2.645-13.198 7.675-.892 4.922 6.906 5.176 9.9 4.628" fill="#fff"/><path d="m180.575 141.88c-42.289 45.663-72.809 95.901-85.765 157.375-10.491 49.753-5.835 102.109 13.821 149.048 19.416 46.378 52.381 86.145 92.504 116.141 43.052 32.188 94.227 52.596 147.161 61.154 58.351 9.428 118.75 3.525 174.688-15.268 7.479-2.512 14.873-5.266 22.187-8.221 3.753-1.514 4.126-4.64.823-6.977-3.551-2.519-9.954-3.288-14.012-1.648-52.325 21.1-109.192 30.653-165.329 24.559-49.753-5.393-98.39-22.897-140.027-51.315-39.448-26.922-72.407-63.628-93.162-106.77-21.182-44.033-28.756-93.348-21.786-141.712 8.408-58.336 36.836-111.589 74.114-156.584 5.516-6.653 16.336-22.822 22.208-29.163 2.999-3.238-5.4 1.235-12.466 3.256-3.929 1.126-7.723 4.381-14.959 6.125" fill="#fff"/></svg>