<?xml version="1.0" encoding="UTF-8"?><svg id="Layer_1" xmlns="http://www.w3.org/2000/svg" viewBox="0 0 66 66"><defs><style>.cls-1{fill:#f4aea4;}.cls-2{fill:#fff;}</style></defs><path class="cls-2" d="M65.53,33C63.21,77.21,1.81,75.09,.47,33c2.32-44.21,63.72-42.09,65.06,0Z"/><path class="cls-1" d="M19.26,31.61c-1.59,0-3.12-.8-3.97-2.24l.86-.51c1.01,1.71,3.26,2.27,5.01,1.23l.51,.86c-.76,.45-1.59,.66-2.41,.66Z"/><path class="cls-1" d="M30.85,34.09c-1.59,0-3.12-.8-3.97-2.24l.86-.51c1.01,1.71,3.26,2.26,5.01,1.23l.51,.86c-.76,.45-1.59,.66-2.41,.66Z"/><path class="cls-1" d="M24.44,16.77c-.93,.66-2.04,1.56-2.32,2.74-.18,.74,.1,1.46,.7,1.92,1.48,1.14,3.92,.83,5.34-.25,1.01-.77,1.43-1.95,1.45-3.19,0-.18-.46-.13-.53-.12-.85,.09-1.94,.36-2.45,1.12-.34,.51-.26,1.13,.06,1.62,.95,1.5,3.03,1.51,4.47,.79,1.32-.66,2.17-1.93,2.77-3.23,.11-.24-.43-.21-.53-.19-.24,.03-.62,.14-.73,.39-.44,.96-1.02,1.95-1.91,2.56-.11,.07-.26,.16-.34,.2-.05,.02-.19,.08-.18,.07,.04-.01-.26,.06-.14,.04-.2,.04-.43,.04-.7-.02-.83-.19-1.93-1.06-1.68-2.03,.06-.24,.2-.43,.38-.54,0,0,.23-.11,.18-.09,.21-.07,.36-.09,.61-.11-.18-.04-.35-.08-.53-.12-.01,.92-.28,1.88-.95,2.54-.12,.12-.26,.23-.41,.32-.1,.06-.28,.15-.39,.19-.03,.01-.07,.03-.11,.04,.13-.05,.02,0-.02,0-.04,.01-.27,.07-.13,.04-.28,.06-.26,.05-.5,.06-.55,.02-1.26-.13-1.8-.53-.49-.36-.79-.91-.7-1.53,.17-1.12,1.22-1.96,2.08-2.57,.21-.15,.13-.32-.1-.36-.29-.05-.66,.07-.9,.24"/><path class="cls-1" d="M22.84,40.99c.09-.05,.18-.1,.27-.14,.02,0,.04-.02,.06-.03l-.2,.08s.1-.04,.15-.05h.03c-.07,0-.15,.01-.22,.02,.02,0,.03,0,.05,0-.07,0-.15-.02-.22-.03h.02l-.2-.08h.01c-.06-.04-.11-.08-.17-.12h0s-.09-.1-.13-.16h0c-.03-.06-.06-.12-.08-.19h0c0-.06-.02-.13-.03-.2,0,0,0,.02,0,.02,0-.07,.02-.15,.03-.22,0,.02,0,.04-.02,.05,.03-.07,.06-.13,.08-.2-.02,.05-.05,.09-.08,.13l-.03,.04,.13-.17c-.04,.05-.08,.1-.12,.14-.04,.05-.09,.09-.14,.13-.02,.02-.05,.04-.08,.06l.17-.13s-.07,.05-.11,.07h-.03c.07-.02,.13-.04,.2-.07-.01,0-.03,.01-.04,.01,.07,0,.15-.02,.22-.03,0,0-.01,0-.02,0,.07,0,.15,.02,.22,.03h-.01l.2,.08h0l.17,.12h0l.13,.16h0l.08,.19v-.02c0,.07,.01,.15,.02,.22,0-.01,0-.03,0-.04,0,.07-.02,.15-.03,.22,0-.04,.02-.07,.03-.11l.02-.04-.08,.2c.03-.06,.05-.12,.08-.17,.04-.08,.09-.16,.13-.23,.03-.05,.07-.11,.1-.16,.06-.09,.09-.2,.1-.3,.02-.11,.02-.22-.01-.33-.03-.11-.07-.2-.15-.28-.06-.09-.13-.16-.23-.21-.07-.03-.13-.06-.2-.08-.15-.04-.29-.04-.44,0-.07,.03-.13,.05-.2,.08-.12,.07-.22,.17-.29,.29-.06,.09-.11,.18-.17,.28-.04,.07-.08,.14-.11,.21-.01,.03-.03,.05-.04,.08-.04,.09-.08,.17-.11,.26,0,.02-.01,.04-.02,.06v.02c-.02,.07-.03,.15-.03,.22h0s0,.03,0,.03h0s.02,.19,.03,.23h0v.02s.07,.18,.08,.2h0s.12,.17,.13,.17h0s.06,.05,.08,.07l.08,.06h0s.18,.08,.2,.09h.01l.22,.03h.01c.08,0,.17,0,.25-.04h.02c.07-.03,.14-.06,.2-.09h0s.05-.03,.08-.05c.07-.05,.14-.11,.21-.16,.02-.01,.03-.02,.05-.04,.03-.03,.06-.06,.09-.09,.03-.03,.06-.06,.09-.1,.03-.03,.06-.06,.08-.1,.06-.07,.11-.14,.16-.21,.01-.02,.02-.03,.03-.05,.02-.03,.04-.06,.05-.09h0c.03-.08,.06-.15,.09-.21v-.04h.01s.03-.21,.03-.23h0v-.02s-.02-.15-.02-.11c0,.06,0-.08-.01-.11h0s-.08-.2-.08-.21h0s-.12-.16-.13-.18h0s-.15-.12-.17-.14h0s-.19-.08-.2-.09h-.02s-.12-.02-.11-.02c-.01,0-.08-.01-.11-.02-.01,0-.03,0-.04,0-.08,0-.15,.02-.23,.03h-.04s-.04,.02-.06,.03c-.09,.03-.18,.07-.27,.11-.07,.03-.13,.06-.2,.1-.04,.02-.08,.04-.12,.07-.1,.05-.17,.12-.23,.21-.07,.08-.12,.17-.15,.28-.03,.11-.04,.22-.01,.33,0,.11,.04,.21,.1,.31l.13,.17c.1,.1,.22,.17,.36,.21,.07,0,.15,.02,.22,.03,.15,0,.29-.04,.41-.11"/><path class="cls-1" d="M28.45,33.25c-.05,.14-.13,.26-.23,.36-.02,.02-.05,.05-.08,.07l-.02,.02s.02-.01,0,0c-.02,.01-.03,.02-.05,.03-.01,0-.03,.02-.04,.03h-.02s0,0,0,.01c-.02,0-.03,.02-.05,.02-.03,.01,.03-.01,0,0h-.03s-.14,.06-.09,.1c.02,.01,.06,.01,.08,0,.04,0,.08-.01,.12-.03,.33-.12,.61-.36,.74-.68,.02-.05-.11-.03-.13-.03-.04,0-.08,.02-.12,.04-.02,.01-.06,.03-.06,.05"/><path class="cls-1" d="M29.47,33.44c-.11,.06-.21,.11-.3,.2-.09,.09-.14,.21-.2,.32-.07,.12-.13,.25-.2,.37-.04,.07,.03,.13,.1,.14,.08,0,.16-.03,.21-.1,.1-.17,.19-.35,.29-.52l.02-.03v-.02s-.01,.03,0,.02h0s.02-.04,.04-.06l.02-.02s-.02,.02-.02,.01h.01s.03-.03,.05-.04c0,0,.03-.02,0,0-.03,.02,0,0,0,0l.04-.02s.06-.03,.09-.05c.06-.03,.12-.1,.07-.17-.05-.06-.15-.06-.22-.03"/><path class="cls-1" d="M30.36,33.68c-.05,.41,.1,.83,.41,1.1,.05,.05,.15,.02,.21,0,.03-.01,.14-.07,.09-.11-.28-.26-.43-.65-.39-1.03,0-.07-.09-.06-.13-.05-.05,0-.17,.04-.18,.1"/><path class="cls-1" d="M16.88,30.91c-.08,.12-.18,.23-.29,.33-.03,.02-.06,.05-.09,.07-.03,.02-.04,.03-.08,.05-.03,.02-.06,.04-.1,.06-.01,0-.02,.01,0,0h-.03s-.04,.03-.06,.04c-.02,.01-.11,.06-.04,.08,.07,.01,.16-.01,.22-.04,.31-.14,.58-.35,.77-.64,.03-.04-.11-.03-.12-.02-.04,0-.08,.02-.12,.04-.02,.01-.05,.02-.07,.05"/><path class="cls-1" d="M17.77,31.22c-.06,.06-.15,.13-.19,.21-.05,.11-.08,.22-.12,.33-.06,.15-.13,.31-.2,.47-.07,.15,.25,.12,.3,.02,.1-.23,.21-.46,.29-.7,.01-.04,.03-.08,.04-.12,0,0-.01,.03,0,0v-.02l.02-.02s-.03,.03,0,0c.04-.04,.09-.08,.13-.13,.05-.05,.03-.11-.03-.12-.07-.02-.17,0-.22,.06"/><path class="cls-1" d="M18.43,31.32s.02,.02,.02,.03c.01,.01,0-.02,0,0v.02s0,.01,0,.01c0,0,0-.03,0,0,0,0,0,.02,0,.03,0,.01-.02,.05,0,0v.03s-.04,.06-.05,.1c-.06,.19,.01,.39,.11,.56,.12,.21,.28,.39,.44,.56,.09,.09,.39-.03,.29-.13-.15-.16-.29-.33-.41-.51-.06-.1-.11-.21-.13-.32v-.03s0,0,0,0c0-.02,0-.04,0-.06,0-.03,.01-.06,.02-.09,0-.03,0,.01,0,0v-.02s.02-.02,.02-.04c.01-.03,.02-.06,.03-.09,.01-.07,0-.13-.05-.18-.09-.09-.39,.03-.29,.13"/><g><path class="cls-1" d="M18.39,4.36C9.08,8.85,1.75,18.15,.97,33.03c.69,21.65,17.02,31.69,31.89,31.84,8.69,.09,17.62-3.11,23.87-10.06-6.12,2.05-12.72,2.69-19.1,1.66-5.8-.94-11.41-3.17-16.13-6.7-4.4-3.29-8.01-7.65-10.14-12.73-2.15-5.15-2.66-10.88-1.52-16.34,1.29-6.12,4.49-11.63,8.54-16.34Z"/><path class="cls-1" d="M60.31,49.9c2.64-4.53,4.36-10.14,4.72-16.9C64.33,11.32,48.01,1.29,33.14,1.13c-.12,0-.24,0-.36,0-3.77,0-7.58,.62-11.18,1.89,.16,.13,.25,.29,.1,.46-.64,.69-1.27,1.41-1.88,2.13-4.09,4.93-7.2,10.77-8.12,17.16-.29,2.02-.35,4.06-.18,6.08,1.67-9.98,9.36-14.38,16.73-14.25,7.35,.12,14.88,4.88,16.5,13.77,.14-.03,.27-.05,.41-.06,.99-.08,2.26,.48,2.49,2.26v.02c.02,1.32-1.16,2.19-2.31,2.28-.06,0-.11,0-.17,0-.08,0-.16-.01-.24-.02-.21,1.81-.61,3.46-1.17,4.93,1.85-.2,3.75-.11,5.56,.32,3.57,.85,6.92,2.91,8.98,5.99,1.19,1.77,1.85,3.77,2,5.81Z"/><path class="cls-1" d="M57.6,48.98c-1.38-6.46-8.1-10.45-14.41-9.83-2.98,6.23-8.98,9.08-14.84,9.08-.1,0-.2,0-.3,0-3.02-.05-6.08-.88-8.74-2.46,1.51,1.58,3.19,3.02,5,4.25,4.56,3.12,9.9,5.03,15.35,5.63,6.11,.66,12.31-.37,18.01-2.65,.22-1.32,.22-2.67-.06-4.01Z"/></g></svg>