<?xml version="1.0" encoding="UTF-8"?><svg id="Layer_1" xmlns="http://www.w3.org/2000/svg" viewBox="0 0 258 66"><defs><style>.cls-1{fill:#ffffff;}</style></defs><path class="cls-1" d="M88.73,35.39c-.1-.62-.27-1.22-.43-1.8-.11-.4-.22-.77-.3-1.15,.45-.17,.84-.35,1.18-.56,.27-.14,.35-.49,.31-.77-.06-.36-.34-.53-.65-.52-.42,.07-.91,.16-1.29,.23-.75-2.19-1.66-4.5-2.75-7.02l.05-.16c.05-.27,.02-.53-.11-.74l-.11-.13c-.19-.16-.53-.31-.87-.24-.24,.05-.43,.2-.55,.44-1.57,3.32-2.75,6.88-3.73,9.98h-.03l-.32,.1-.12,.05c-.3,.17-.59,.54-.52,1.03,.06,.22,.2,.4,.42,.53-.45,1.47-.82,2.74-1.17,4.03-.12,.44,0,.89,.35,1.23l.11,.11,.16,.03c.07,.01,.17,.03,.28,.03,.17,0,.37-.04,.54-.18l.13-.1,.04-.16c.37-1.43,.87-3.3,1.51-5.17,1.89-.58,3.62-1.1,5.36-1.51,.08,.32,.17,.64,.26,.96,.15,.54,.31,1.1,.41,1.65,.16,.87,.15,1.56-.04,2.17-.08,.28,.03,.57,.28,.75,.26,.19,.59,.2,.78,.07,.22-.11,.39-.27,.49-.44,.07-.09,.11-.19,.17-.31l.09-.2c.15-.73,.16-1.46,.05-2.21h0Zm-7.16-3.09c.7-2.11,1.42-4.17,2.26-6.15,.66,1.55,1.28,3.21,1.87,5.06-1.4,.32-2.74,.7-4.13,1.09Z"/><path class="cls-1" d="M111.1,24.71c1.19,.24,2.07,.51,2.87,.87l.52,.3c.15,.08,.33,.17,.57,.24l.54,.16,.09-.56c.07-.4-.09-.8-.42-1.08-1.15-1.05-2.53-1.59-4.1-1.62h-.18l-.14,.11c-.33,.27-.41,.73-.32,1.06,.09,.3,.32,.5,.55,.52Z"/><path class="cls-1" d="M124.35,34.97c-.24-.1-.5-.05-.68,.13l-.12,.19c-.22,.64-.7,1.27-1.47,1.93-.36,.31-.82,.59-1.27,.75-.49,.19-.92,.18-1.3-.04-.32-.18-.52-.49-.65-1.04,.34-.22,.7-.48,1.06-.74,.55-.4,.99-.76,1.4-1.16,.06-.08,.16-.18,.23-.25l.35-.33c.28-.25,.55-.53,.79-.79,.44-.52,.6-1.07,.49-1.64l-.03-.11c-.23-.53-.9-1.81-2.1-2.22-.85-.28-2.04,.09-2.72,.65-.61,.69-1.05,1.6-1.24,2.55-.2,.89-.26,1.9-.2,3.14h-.02c-.09,.07-.19,.13-.29,.17-.04,.02-.08,.03-.13,.04l-.08,.03c-.14,.02-.29,.08-.43,.14-.06-.15-.15-.29-.29-.41l-.33-.29-.33,.29c-.27,.23-.4,.49-.49,.71-.03,.07-.06,.15-.08,.22-.03,.09-.06,.17-.08,.21l-.12,.17c-.14,.2-.28,.4-.44,.53-.14,.12-.26,.2-.38,.22l-.06-.04h0c-.36-1.22-.32-3.74,.11-7.09,.03-.21,.08-.65-.24-1.02l-.13-.1c-.43-.25-1.04-.28-1.31,.16-.42,.64-.78,1.3-1.12,1.94-.16,.29-.31,.58-.48,.87-.42,.75-1.01,1.72-1.81,2.64-.11,.15-.16,.33-.13,.5-.19,.02-.52,.12-.67,.59-.25,.46-.77,1.12-1.16,1.37-.44,.26-.74,.36-1.19,.27-.47-.16-.88-.5-1.19-.98-.34-.51-.59-1.18-.75-2.06,1.52-2.35,2.38-4.29,2.77-6.28,.19-1.02,.27-1.92,.25-2.84-.03-.95-.13-1.95-.69-2.74l-.07-.08c-.23-.21-.56-.32-.9-.29-.34,.02-.65,.17-.85,.41-1.01,1.22-1.72,2.69-2.12,4.36-.43,1.89-.52,4.1-.27,6.93-.34,.45-.71,.87-1.09,1.21l-1.07,.99c.01-.17,0-.44-.28-.71l-.15-.15h-.21c-.17,0-.58,.07-.75,.6-.25,.46-.77,1.12-1.16,1.37-.44,.26-.74,.36-1.19,.27-.47-.16-.88-.5-1.19-.98-.34-.51-.59-1.18-.75-2.06,1.52-2.35,2.38-4.29,2.77-6.28,.19-1.02,.27-1.92,.25-2.84-.03-.95-.13-1.95-.69-2.74l-.07-.08c-.23-.21-.56-.32-.9-.29-.34,.02-.65,.17-.85,.41-1.01,1.22-1.72,2.69-2.12,4.36-.43,1.89-.52,4.1-.27,6.93-.34,.45-.71,.87-1.09,1.21l-1.49,1.37c-.15,.18-.22,.43-.18,.67,.03,.23,.16,.43,.32,.54,.32,.23,.78,.23,1.13,0,.6-.41,1.22-.95,1.82-1.57,.05,.15,.11,.29,.17,.44,.2,.49,.46,.91,.8,1.33,.42,.49,1.29,1.32,2.45,1.35,.04,0,.07,0,.11,0,.82,0,1.4-.33,1.91-.7,.4-.3,.77-.72,1.08-1.2,.06,.14,.14,.26,.25,.34,.32,.23,.78,.23,1.13,0,.6-.41,1.22-.95,1.82-1.57,.05,.15,.11,.29,.17,.44,.2,.49,.46,.91,.8,1.33,.42,.49,1.29,1.32,2.45,1.35,.04,0,.07,0,.11,0,.82,0,1.4-.33,1.91-.7,.6-.45,1.13-1.13,1.48-1.93l.05-.14c.03-.09,.07-.21,.06-.25,.01-.07,.03-.21,0-.39,.06,0,.12,.02,.19,.02,.31-.04,.58-.23,.78-.4,.53-.57,.99-1.2,1.46-1.97-.05,1.26-.03,2.55,.15,3.86,.07,.46,.22,1.05,.76,1.52,.31,.27,.81,.33,1.13,.33,.11,0,.19,0,.25-.01h.08c.46-.13,.9-.4,1.26-.79,.36-.4,.63-.85,.79-1.28l.11,.08c.39,.18,.73,.21,1.14,.1,.07-.02,.14-.05,.21-.08,.03,.06,.05,.11,.08,.17,.14,.31,.35,.61,.69,.98,.54,.57,1.34,.89,2.17,.89,.1,0,.2,0,.3-.01,.78-.07,1.58-.42,2.37-1.04h0c.54-.44,1-.93,1.36-1.47,.22-.35,.59-1.04,.63-1.68,0-.31-.26-.59-.51-.7Zm-30.68-6.74h0c.25-1.27,.62-2.33,1.11-3.21,.12,1.1,.06,2.22-.17,3.31-.25,1.13-.67,2.27-1.25,3.4,0-1.12,.07-2.34,.31-3.5Zm9.72,0h0c.25-1.27,.62-2.33,1.11-3.21,.12,1.1,.06,2.22-.17,3.31-.25,1.13-.67,2.27-1.25,3.4,0-1.12,.07-2.34,.31-3.5Zm15.55,4.92c.16-.63,.38-1.11,.68-1.51,.22-.18,.73-.26,1.06-.18,.26,.2,.51,.51,.7,.89-.08,.18-.28,.37-.47,.54l-.2,.19c-.41,.43-.88,.84-1.35,1.19-.21,.16-.42,.31-.63,.46,.01-.61,.08-1.13,.22-1.59Z"/><path class="cls-1" d="M145.52,30.05l-1.39-.83c-.88,2.2-2.16,4.05-3.83,5.6-1.78-1.51-3.22-3.35-4.32-5.51l-1.3,.76c1.08,2.25,2.52,4.2,4.32,5.82-1.94,1.39-4.3,2.41-7.08,3.08l.9,1.51c2.95-.74,5.47-1.89,7.53-3.48,1.94,1.48,4.25,2.61,6.91,3.44l.95-1.44c-2.48-.76-4.68-1.8-6.57-3.13,1.66-1.58,2.95-3.51,3.87-5.82Z"/><polygon class="cls-1" points="142.46 28.91 144.17 28.91 144.17 27.31 147.9 27.31 147.9 25.73 144.17 25.73 144.17 23.96 142.46 23.96 142.46 25.73 140.46 25.73 140.46 27.31 142.46 27.31 142.46 28.91"/><polygon class="cls-1" points="135.98 28.91 137.69 28.91 137.69 27.31 139.67 27.31 139.67 25.73 137.69 25.73 137.69 23.96 135.98 23.96 135.98 25.73 132.23 25.73 132.23 27.31 135.98 27.31 135.98 28.91"/><path class="cls-1" d="M158.93,36.51h6.36v-1.62h-6.36v-1.75h5.58v-8.7h-12.93v8.7h5.62v1.75h-6.36v1.62h6.36v1.82h-7.13v1.66h15.97v-1.66h-7.11v-1.82Zm0-10.48h3.91v2h-3.91v-2Zm0,3.58h3.91v1.96h-3.91v-1.96Zm-1.73,1.96h-3.94v-1.96h3.94v1.96Zm0-3.55h-3.94v-2h3.94v2Z"/><path class="cls-1" d="M174.95,34.82l-1.42,.38c.41,1.06,.76,2.14,1.04,3.26l1.42-.54c-.25-.94-.59-1.96-1.04-3.1Z"/><path class="cls-1" d="M167.62,39.1l1.4,.9c.77-1.35,1.37-2.94,1.8-4.75l-1.55-.32c-.32,1.48-.88,2.88-1.66,4.18Z"/><path class="cls-1" d="M178.85,26.52c1.87-.11,3.6-.43,5.15-.95l-.85-1.53c-1.76,.68-3.75,1.06-5.94,1.1v7.74c-.09,2.7-.65,4.81-1.67,6.32l1.22,1.28c1.31-1.89,2.02-4.43,2.09-7.6v-1.78h2.14v9.43h1.67v-9.43h1.73v-1.64h-5.55v-2.94Z"/><path class="cls-1" d="M176.14,32.57h-3.08v-1.6h3.39v-1.57h-1.85c.25-.54,.5-1.13,.72-1.8l-1.53-.52c-.22,.81-.45,1.58-.72,2.32h-1.71c-.25-.9-.5-1.67-.79-2.32l-1.49,.56c.29,.54,.56,1.13,.77,1.76h-1.91v1.57h3.44v1.6h-3.15v1.57h3.15v6.43h1.69v-6.43h3.08v-1.57Z"/><path class="cls-1" d="M176.33,25.31h-3.31c-.22-.59-.43-1.13-.65-1.6l-1.78,.29c.27,.4,.52,.85,.74,1.31h-3.22v1.58h8.23v-1.58Z"/><path class="cls-1" d="M195.23,34.1h5.42v-1.66h-5.42v-3.73h5.78v-1.66h-5.78v-3.03h-1.71v3.03h-3.35c.22-.72,.41-1.49,.59-2.32l-1.75-.31c-.58,2.9-1.67,5.2-3.29,6.91l1.12,1.42c1.1-1.08,2-2.43,2.72-4.05h3.96v3.73h-5.15v1.66h5.15v4.1h-7.33v1.69h15.97v-1.69h-6.93v-4.1Z"/><path class="cls-1" d="M218.19,38.33c-.14,.2-.38,.31-.68,.31h-1.6c-.54,0-.79-.29-.79-.83v-4.5h3.39v-8.61h-5.71v1.55h4.05v2.05h-3.98v1.46h3.98v2h-9.45v-2.03h3.96v-1.46h-3.96v-1.76c1.8-.29,3.21-.68,4.2-1.17l-.85-1.46c-1.42,.7-3.08,1.12-4.99,1.22v8.21h3.42c-.18,1.6-.59,2.79-1.21,3.55-.79,.9-2.09,1.69-3.91,2.36l1.08,1.37c2.05-.85,3.49-1.84,4.36-2.95,.72-.95,1.17-2.39,1.37-4.32h2.54v4.86c0,1.39,.65,2.09,1.98,2.09h2.43c.7,0,1.22-.16,1.55-.45,.36-.32,.61-1.33,.74-3.02l-1.57-.49c-.07,1.12-.18,1.8-.34,2.03Z"/><path class="cls-1" d="M234.83,31.68h1.57v-.67h1.44v-1.3h-1.44v-3.98h1.17v-1.28h-9.69v1.28h1.12v3.98h-1.4v1.3h7.24v.67Zm-4.3-5.94h4.3v.68h-4.3v-.68Zm0,1.66h4.3v.65h-4.3v-.65Zm0,2.32v-.68h4.3v.68h-4.3Z"/><path class="cls-1" d="M237.59,33.34h.52v-1.33h-5.15v1.33h.41v4.54h-.72v1.35h3.58v1.31h1.35v-1.31h.7v-1.35h-.7v-4.54Zm-1.35,4.54h-1.57v-.83h1.57v.83Zm0-1.89h-1.57v-.79h1.57v.79Zm0-1.84h-1.57v-.81h1.57v.81Z"/><path class="cls-1" d="M227.02,30.75c-.5,.27-1.01,.52-1.51,.76v-3.1h1.6v-1.66h-1.6v-2.81h-1.66v2.81h-1.78v1.66h1.78v3.76c-.7,.25-1.4,.45-2.11,.61l.41,1.66c.56-.18,1.12-.38,1.69-.58v4.36c0,.41-.18,.63-.5,.63-.4,0-.79-.05-1.22-.13l.36,1.62h1.44c1.04,0,1.58-.58,1.58-1.73v-5.46c.5-.22,1.01-.47,1.51-.72v-1.69Z"/><path class="cls-1" d="M227.33,33.34h.56v5.04c-.34,.04-.68,.05-1.04,.09l.34,1.28c1.28-.14,2.48-.31,3.64-.49v1.28h1.35v-7.2h.41v-1.33h-5.26v1.33Zm1.91,0h1.58v.86h-1.58v-.86Zm0,1.93h1.58v.85h-1.58v-.85Zm0,1.89h1.58v.85l-1.58,.22v-1.06Z"/><path class="cls-1" d="M255.55,25.15l-1.04-1.19c-1.3,1.37-2.97,2.48-5.01,3.35l.7,1.46c2.12-.95,3.91-2.16,5.35-3.62Z"/><path class="cls-1" d="M249.86,32.59l.7,1.44c2.16-1.08,3.98-2.47,5.47-4.14l-1.04-1.19c-1.33,1.6-3.04,2.9-5.13,3.89Z"/><path class="cls-1" d="M249.58,30.41h-4.03l-.22-.9h3.42v-5.04h-7.96v5.04h2.94l.22,.9h-4.09v1.31h9.72v-1.31Zm-7.26-4.79h4.88v.9h-4.88v-.9Zm0,2.77v-.86h4.88v.86h-4.88Z"/><path class="cls-1" d="M241.29,36.6c-.45,1.06-.99,1.98-1.62,2.75l1.22,.88c.65-.86,1.21-1.87,1.67-3.02l-1.28-.61Z"/><path class="cls-1" d="M255.16,33.34c-1.33,2.57-3.33,4.43-5.98,5.56l.68,1.57c2.92-1.24,5.13-3.29,6.61-6.14l-1.31-.99Z"/><path class="cls-1" d="M246.41,37.36c.61,.92,1.08,1.76,1.44,2.52l1.21-.85c-.34-.68-.83-1.49-1.48-2.39l-1.17,.72Z"/><path class="cls-1" d="M248.64,32.57h-7.71v3.66h3.02v2.29c0,.29-.14,.45-.41,.45-.34,0-.7-.04-1.08-.11l.34,1.49h1.26c1.01,0,1.53-.49,1.53-1.46v-2.66h3.04v-3.66Zm-1.57,2.47h-4.57v-1.31h4.57v1.31Z"/><path class="cls-1" d="M16.7,28.85l-.86,.51c.4,.67,.94,1.2,1.57,1.57-.08,.11-.17,.22-.27,.3-.03,.02-.06,.05-.09,.07-.03,.02-.04,.03-.08,.05-.03,.02-.06,.04-.1,.06-.01,0-.02,.01,0,0h-.03s-.04,.03-.06,.04c-.02,.01-.11,.06-.04,.08,.07,.01,.16-.01,.22-.04,.23-.1,.43-.27,.6-.45,.2,.11,.42,.2,.64,.28-.03,.03-.06,.07-.08,.11-.05,.11-.08,.22-.12,.33-.06,.15-.13,.31-.2,.47-.07,.15,.25,.12,.3,.02,.1-.23,.21-.46,.29-.7,.01-.04,.03-.07,.04-.11h0v-.02h.02v-.02c.18,.05,.34,.09,.51,.12h0c-.06,.21,.01,.4,.11,.57,.12,.21,.28,.39,.44,.56,.09,.09,.39-.03,.29-.13-.15-.16-.29-.33-.41-.51-.06-.1-.11-.21-.13-.32v-.03s0,0,0,0c0-.02,0-.04,0-.06,0,0,0-.02,0-.02,.18,.02,.36,.03,.55,.03,.82,0,1.65-.21,2.41-.66l-.51-.86c-1.75,1.04-4,.48-5.01-1.23Z"/><path class="cls-1" d="M33.81,33.43l-.51-.86c-.85,.5-1.84,.65-2.79,.42-.94-.23-1.73-.82-2.22-1.65l-.86,.51c.37,.63,.9,1.14,1.5,1.52-.05,.08-.09,.17-.16,.24-.02,.03-.05,.05-.08,.07l-.02,.02s.02-.01,0,0c-.02,.01-.03,.02-.05,.03-.01,0-.03,.02-.04,.03h-.02s-.03,.03-.05,.04c0,0,0,0,0,0h-.03s-.14,.06-.09,.1c.02,.01,.06,.01,.08,0,.04,0,.08-.01,.12-.03,.22-.08,.41-.21,.56-.39,.17,.09,.34,.18,.53,.25-.05,.07-.1,.15-.14,.22-.07,.12-.13,.25-.2,.37-.04,.07,.03,.13,.1,.14,.08,0,.16-.03,.21-.1,.1-.17,.19-.35,.29-.52h0c.12,.03,.23,.08,.35,.11,.22,.05,.44,.09,.66,.11,.05,.27,.18,.53,.39,.72,.05,.05,.15,.02,.21,0,.03-.01,.14-.07,.09-.11-.17-.15-.28-.36-.34-.58,.04,0,.09,0,.13,0,.84,0,1.67-.23,2.41-.66Z"/><path class="cls-1" d="M25.99,16.89c.21-.15,.13-.32-.1-.36-.29-.05-.66,.07-.9,.24-.93,.66-2.04,1.56-2.32,2.74-.18,.74,.1,1.46,.7,1.92,1.32,1.02,3.39,.88,4.83,.08,1.05,.56,2.44,.43,3.5-.09,1.32-.66,2.17-1.93,2.77-3.23,.11-.24-.43-.21-.53-.19-.24,.03-.62,.14-.73,.39-.44,.96-1.02,1.96-1.91,2.56-.11,.07-.26,.16-.34,.2-.05,.02-.19,.08-.18,.07,.03-.01-.13,.03-.16,.04-.19,.03-.42,.04-.68-.02-.28-.06-.59-.21-.86-.4,.74-.76,1.08-1.76,1.1-2.84,0-.18-.46-.13-.53-.12-.85,.09-1.94,.36-2.45,1.12-.34,.51-.26,1.13,.06,1.62,.12,.19,.25,.35,.4,.49-.04,.03-.07,.06-.11,.08-.1,.06-.28,.15-.39,.19-.02,0-.05,.02-.07,.03-.02,0-.04,.01-.06,.02-.04,.01-.27,.07-.13,.04-.28,.06-.26,.05-.5,.06-.55,.02-1.26-.13-1.8-.53-.49-.36-.79-.91-.7-1.53,.17-1.12,1.22-1.96,2.08-2.57Zm2.27,2.3c.06-.24,.2-.43,.38-.54,0,0,.23-.11,.18-.09,.02,0,.04,0,.06-.01-.03,.57-.17,1.14-.44,1.65-.19-.3-.28-.64-.19-.99Z"/><path class="cls-1" d="M22.54,39.61c-.08,.05-.15,.1-.2,.18-.07,.08-.12,.17-.15,.28-.02,.07-.01,.14,0,.21-.02,.05-.04,.09-.06,.14,0,.02-.01,.04-.02,.06v.02c-.02,.07-.03,.15-.03,.22h0v.02s0,.01,0,.02h0s.02,.19,.03,.22h0v.02s.07,.18,.08,.2h0s.12,.17,.13,.17h0s.06,.05,.08,.07l.08,.06h0s.18,.08,.2,.09h.01l.22,.03h.01c.08,0,.17,0,.25-.03h.02c.07-.03,.14-.06,.2-.09h0s.05-.03,.08-.05c.07-.05,.14-.11,.21-.16,.02-.01,.03-.02,.05-.04,.03-.03,.06-.06,.09-.09,.03-.03,.06-.06,.09-.1,.03-.03,.06-.06,.08-.1,.06-.07,.11-.14,.17-.21,.01-.02,.02-.03,.03-.05,.02-.03,.04-.06,.05-.09h0c.03-.08,.06-.15,.09-.21v-.04h.01s.03-.21,.03-.23h0v-.02s0-.08-.01-.1c0-.02-.01-.1-.02-.12h0s-.08-.2-.08-.21h0s-.12-.16-.13-.18h0s-.15-.12-.17-.14h0s-.19-.08-.2-.09h-.02s-.12-.02-.11-.02c-.01,0-.05,0-.08-.01l-.09-.04c-.15-.04-.29-.04-.44,0-.07,.03-.13,.05-.2,.08-.12,.07-.22,.17-.29,.29v.02Z"/><path class="cls-1" d="M43.74,39.15c-2.98,6.23-8.98,9.08-14.84,9.08-.1,0-.2,0-.3,0-3.02-.05-6.08-.88-8.74-2.46,1.51,1.58,3.19,3.02,5,4.25,4.56,3.12,9.9,5.03,15.35,5.63,6.11,.66,12.31-.37,18.01-2.65,.22-1.32,.22-2.67-.06-4.01-1.38-6.46-8.1-10.45-14.41-9.83Z"/><path class="cls-1" d="M38.2,56.47c-5.8-.94-11.41-3.17-16.13-6.7-4.4-3.29-8.01-7.65-10.14-12.73-2.15-5.15-2.66-10.88-1.52-16.34,1.29-6.12,4.49-11.63,8.54-16.34C9.64,8.85,2.31,18.15,1.53,33.03c.69,21.65,17.02,31.69,31.89,31.84,.12,0,.24,0,.36,0,8.6,0,17.37-3.21,23.53-10.06-6.12,2.05-12.73,2.69-19.11,1.66Z"/><path class="cls-1" d="M33.69,1.13c-.12,0-.24,0-.36,0-3.77,0-7.58,.62-11.18,1.89,.16,.13,.25,.29,.1,.46-.64,.69-1.27,1.41-1.88,2.13-4.09,4.93-7.2,10.77-8.12,17.16-.29,2.02-.35,4.06-.18,6.08,1.65-9.85,9.15-14.26,16.43-14.26,.1,0,.2,0,.3,0,7.35,.12,14.88,4.88,16.5,13.77,.14-.03,.27-.05,.41-.06,1-.07,2.25,.48,2.49,2.26v.02c.02,1.32-1.16,2.19-2.3,2.28-.06,0-.11,0-.17,0-.08,0-.16-.01-.24-.02-.21,1.81-.61,3.46-1.17,4.93,1.85-.2,3.75-.11,5.56,.32,3.57,.85,6.92,2.91,8.98,5.99,1.19,1.78,1.86,3.77,2.01,5.82,2.64-4.53,4.36-10.15,4.72-16.92C64.89,11.32,48.57,1.29,33.69,1.13Z"/></svg>